<svg width="84" height="48" viewBox="0 0 84 48" fill="none" xmlns="http://www.w3.org/2000/svg">
<g clip-path="url(#clip0_189_146)">
<path d="M35.1982 0.456055H41.8907L55.6237 21.8649V0.456055H61.5341V31.9008H55.2332L41.1087 9.80313V31.9008H35.1982V0.456055Z" fill="white"/>
<path d="M65.1821 0.456055H84V6.05568H71.0925V13.2929H84V18.8925H71.0925V26.3023H84V31.9019H65.1821V0.456055Z" fill="white"/>
<path d="M35.1982 0.456055H41.8907L55.6237 21.8649V0.456055H61.5341V31.9008H55.2332L41.1087 9.80313V31.9008H35.1982V0.456055Z" fill="#FBAF23"/>
<path d="M65.1821 0.456055H84V6.05568H71.0925V13.2929H84V18.8925H71.0925V26.3023H84V31.9019H65.1821V0.456055Z" fill="#FBAF23"/>
<path d="M0.189209 48.0001V36.6284H3.86664C6.56951 36.6284 8.15751 38.2326 8.15751 40.585C8.15751 41.9563 7.48207 43.2338 6.22471 43.9033L8.51971 48.0001H6.08332L4.24406 44.5265H2.32649V48.0001H0.189209ZM3.67738 42.5784C5.43724 42.5784 6.01914 41.6286 6.01914 40.5063C6.01914 39.384 5.31216 38.6056 3.67738 38.6056H2.3254V42.5784H3.67738Z" fill="#001442"/>
<path d="M13.0282 36.6272H15.1818L19.2682 47.9989H17.0363L16.3293 45.9743H11.8818L11.1748 47.9989H8.94287L13.0293 36.6272H13.0282ZM12.604 43.9496H15.6212L14.1126 39.634L12.604 43.9496Z" fill="#001442"/>
<path d="M20.1633 36.6272H22.2854L25.7583 41.4096L29.3727 36.6272H31.4001V47.9989H29.2628V40.0232L25.742 44.728L22.2995 40.1008V47.9989H20.1622V36.6272H20.1633Z" fill="#001442"/>
<path d="M36.3663 36.6272H38.5199L42.6063 47.9989H40.3744L39.6674 45.9743H35.2199L34.5129 47.9989H32.281L36.3674 36.6272H36.3663ZM35.941 43.9496H38.9582L37.4496 39.634L35.941 43.9496Z" fill="#001442"/>
<path d="M43.5004 36.6272H46.6274C50.4941 36.6272 52.6945 39.0885 52.6945 42.3131C52.6945 45.5376 50.2113 47.9989 46.7221 47.9989H43.5004V36.6272ZM45.6376 38.5904V46.0368H46.4708C48.9855 46.0368 50.5572 44.4326 50.5572 42.3141C50.5572 40.1957 49.2215 38.5904 46.3762 38.5904H45.6376Z" fill="#001442"/>
<path d="M60.2223 43.3103H55.8216V47.9989H53.6843V36.6272H55.8216V41.2846H60.2223V36.6272H62.3596V47.9989H60.2223V43.3103Z" fill="#001442"/>
<path d="M67.3412 36.6272H69.4948L73.5812 47.9989H71.3492L70.6423 45.9743H66.1948L65.4878 47.9989H63.2559L67.3423 36.6272H67.3412ZM66.9159 43.9496H69.9342L68.4256 39.634L66.917 43.9496H66.9159Z" fill="#001442"/>
<path d="M74.4752 36.6272H76.8953L81.8616 44.3701V36.6272H83.9989V47.9989H81.7202L76.6125 40.007V47.9989H74.4752V36.6272Z" fill="#001442"/>
<path d="M14.1647 13.9829V13.9301C14.1876 13.1517 14.1452 12.1836 13.9309 11.0947C13.6329 9.57458 13.1075 8.36604 12.655 7.51758C12.1982 8.34879 11.6566 9.55949 11.3585 11.0947C11.1454 12.19 11.1127 13.1603 11.1443 13.9301V13.9829H10.4275V14.9467C10.5537 15.0481 10.7157 15.2033 10.8582 15.4232C11.029 15.6874 11.1062 15.9461 11.1432 16.1488V24.4738H14.1637V16.1218C14.2028 15.9235 14.2811 15.6755 14.4443 15.4232C14.5868 15.2022 14.7488 15.0481 14.875 14.9467V13.9829H14.1637H14.1647Z" fill="#FBAF23"/>
<path d="M12.9052 27.1766C12.294 24.8641 12.7475 23.3828 13.0967 22.6184C13.8939 20.8719 15.6516 19.5577 16.6697 18.7977C17.3984 18.2532 18.3599 17.6398 19.3421 16.3849C19.6956 15.9332 19.9479 15.531 20.1078 15.2572C20.2416 15.5235 20.4613 15.9213 20.7876 16.3644C21.6175 17.4899 22.3702 17.8996 23.4568 18.7319C23.9201 19.0866 26.0955 20.5819 27.0396 22.6184C27.3952 23.386 27.8847 24.8867 27.368 27.2014C22.5475 27.1928 17.7269 27.1852 12.9052 27.1766Z" fill="url(#paint0_linear_189_146)"/>
<path d="M20.1002 15.4728C20.242 15.4728 20.3569 15.3589 20.3569 15.2184C20.3569 15.0779 20.242 14.964 20.1002 14.964C19.9584 14.964 19.8435 15.0779 19.8435 15.2184C19.8435 15.3589 19.9584 15.4728 20.1002 15.4728Z" fill="url(#paint1_linear_189_146)"/>
<path d="M20.6559 14.5273C19.9152 14.5273 19.3159 13.9322 19.3159 13.1991C19.3159 12.5426 19.7956 11.9981 20.4264 11.8903C20.3449 11.8774 20.26 11.8709 20.1741 11.8709C19.292 11.8709 18.5774 12.5792 18.5774 13.4536C18.5774 14.3279 19.292 15.0362 20.1741 15.0362C20.8158 15.0362 21.3684 14.661 21.6218 14.1209C21.3782 14.3721 21.0355 14.5295 20.6559 14.5295V14.5273Z" fill="url(#paint2_linear_189_146)"/>
<path d="M21.1389 12.3399L21.3521 12.8854L21.9416 12.9178L21.4837 13.2875L21.6349 13.8525L21.1389 13.5355L20.644 13.8525L20.7952 13.2875L20.3373 12.9178L20.9268 12.8854L21.1389 12.3399Z" fill="url(#paint3_linear_189_146)"/>
<path d="M12.9052 27.1766C12.294 24.8641 12.7475 23.3828 13.0967 22.6184C13.8939 20.8719 15.6516 19.5577 16.6697 18.7977C17.3984 18.2532 18.3599 17.6398 19.3421 16.3849C19.6956 15.9332 19.9479 15.531 20.1078 15.2572C20.2416 15.5235 20.4613 15.9213 20.7876 16.3644C21.6175 17.4899 22.3702 17.8996 23.4568 18.7319C23.9201 19.0866 26.0955 20.5819 27.0396 22.6184C27.3952 23.386 27.8847 24.8867 27.368 27.2014C22.5475 27.1928 17.7269 27.1852 12.9052 27.1766Z" fill="#FBAF23"/>
<path d="M20.1002 15.4728C20.242 15.4728 20.3569 15.3589 20.3569 15.2184C20.3569 15.0779 20.242 14.964 20.1002 14.964C19.9584 14.964 19.8435 15.0779 19.8435 15.2184C19.8435 15.3589 19.9584 15.4728 20.1002 15.4728Z" fill="#FBAF23"/>
<path d="M20.6559 14.5273C19.9152 14.5273 19.3159 13.9322 19.3159 13.1991C19.3159 12.5426 19.7956 11.9981 20.4264 11.8903C20.3449 11.8774 20.26 11.8709 20.1741 11.8709C19.292 11.8709 18.5774 12.5792 18.5774 13.4536C18.5774 14.3279 19.292 15.0362 20.1741 15.0362C20.8158 15.0362 21.3684 14.661 21.6218 14.1209C21.3782 14.3721 21.0355 14.5295 20.6559 14.5295V14.5273Z" fill="#FBAF23"/>
<path d="M21.1389 12.3399L21.3521 12.8854L21.9416 12.9178L21.4837 13.2875L21.6349 13.8525L21.1389 13.5355L20.644 13.8525L20.7952 13.2875L20.3373 12.9178L20.9268 12.8854L21.1389 12.3399Z" fill="#FBAF23"/>
<path d="M21.2292 27.1486C13.6655 27.1486 7.53432 21.0714 7.53432 13.5743C7.53432 6.8707 12.4386 1.30557 18.8842 0.202682C18.0456 0.0711542 17.1863 0 16.3097 0C7.30156 0 0 7.23725 0 16.166C0 25.0948 7.30156 32.332 16.3097 32.332C22.8618 32.332 28.5079 28.5005 31.101 22.9763C28.6091 25.5465 25.109 27.1486 21.2292 27.1486Z" fill="#FBAF23"/>
</g>
<defs>
<linearGradient id="paint0_linear_189_146" x1="20.098" y1="27.2014" x2="20.098" y2="15.2561" gradientUnits="userSpaceOnUse">
<stop stop-color="#0BA360"/>
<stop offset="1" stop-color="#3CBA92"/>
</linearGradient>
<linearGradient id="paint1_linear_189_146" x1="20.1002" y1="15.4728" x2="20.1002" y2="14.9629" gradientUnits="userSpaceOnUse">
<stop stop-color="#0BA360"/>
<stop offset="1" stop-color="#3CBA92"/>
</linearGradient>
<linearGradient id="paint2_linear_189_146" x1="20.1001" y1="15.0351" x2="20.1001" y2="11.8698" gradientUnits="userSpaceOnUse">
<stop stop-color="#0BA360"/>
<stop offset="1" stop-color="#3CBA92"/>
</linearGradient>
<linearGradient id="paint3_linear_189_146" x1="21.1389" y1="13.8525" x2="21.1389" y2="12.3399" gradientUnits="userSpaceOnUse">
<stop stop-color="#0BA360"/>
<stop offset="1" stop-color="#3CBA92"/>
</linearGradient>
<clipPath id="clip0_189_146">
<rect width="84" height="48" fill="white"/>
</clipPath>
</defs>
</svg>
